<?xml version="1.0" encoding="UTF-8" standalone="no"?>
<svg width="21px" height="39px" viewBox="0 0 21 39" version="1.1" xmlns="http://www.w3.org/2000/svg" xmlns:xlink="http://www.w3.org/1999/xlink">
    <defs></defs>
    <g id="Page-1" stroke="none" stroke-width="1" fill="none" fill-rule="evenodd">
        <path d="M0,21.2109375 L0,14.2734375 L5.98290598,14.2734375 L5.98290598,9.1640625 C5.98290598,6.25779797 6.79626023,4.00391426 8.42299313,2.40234375 C10.049726,0.800773242 12.2160638,5.96855898e-15 14.9220714,0 C17.2213958,5.96855898e-15 19.0045186,0.0937490625 20.2714932,0.28125 L20.2714932,6.46875 L16.5879001,6.46875 C15.2427171,6.46875 14.3355143,6.74999719 13.8662645,7.3125 C13.3970146,7.87500281 13.1623932,8.71874438 13.1623932,9.84375 L13.1623932,14.2734375 L20.0368694,14.2734375 L19.1218368,21.2109375 L13.1623932,21.2109375 L13.1623932,39 L5.98290598,39 L5.98290598,21.2109375 L0,21.2109375 Z" id="facebook-2" fill="#FFFFFF"></path>
    </g>
</svg>