<?xml version="1.0" encoding="UTF-8" standalone="no"?>
<svg width="29px" height="23px" viewBox="0 0 29 23" version="1.1" xmlns="http://www.w3.org/2000/svg" xmlns:xlink="http://www.w3.org/1999/xlink">
    <defs></defs>
    <g id="Page-1" stroke="none" stroke-width="1" fill="none" fill-rule="evenodd">
        <path d="M0,20.3945312 C0.429359169,20.4424482 0.90778078,20.4664063 1.43527919,20.4664063 C4.19544527,20.4664063 6.65502305,19.639852 8.81408629,17.9867187 C7.52600879,17.9627603 6.37289003,17.576436 5.35469543,16.8277344 C4.33650083,16.0790327 3.63726924,15.1237037 3.2569797,13.9617187 C3.66180405,14.0216149 4.03595429,14.0515625 4.37944162,14.0515625 C4.90694003,14.0515625 5.42829692,13.9856777 5.94352792,13.8539062 C4.56957858,13.578384 3.43179385,12.9105522 2.53013959,11.8503906 C1.62848534,10.7902291 1.17766497,9.55938201 1.17766497,8.1578125 L1.17766497,8.0859375 C2.0118485,8.54114811 2.90735562,8.78671857 3.8642132,8.82265625 C3.05456448,8.29557028 2.41053539,7.60677509 1.9321066,6.75625 C1.45367781,5.90572491 1.21446701,4.9833383 1.21446701,3.9890625 C1.21446701,2.93489056 1.48434586,1.95859824 2.02411168,1.06015625 C3.50846766,2.84506101 5.31481592,4.27356235 7.44321066,5.34570312 C9.5716054,6.4178439 11.8502417,7.01380148 14.2791878,7.13359375 C14.1810486,6.67838314 14.1319797,6.23515841 14.1319797,5.80390625 C14.1319797,4.19868989 14.7116059,2.83008379 15.8708756,1.69804687 C17.0301454,0.566009965 18.4316754,0 20.0755076,0 C21.7929443,0 23.2404763,0.610931391 24.4181472,1.8328125 C25.7552943,1.58124874 27.0126845,1.11406591 28.1903553,0.43125 C27.7364614,1.80886105 26.8654887,2.87499623 25.5774112,3.6296875 C26.7182798,3.50989523 27.8591314,3.21041906 29,2.73125 C28.1780839,3.9052142 27.184439,4.90546462 26.0190355,5.73203125 C26.0313029,5.89974042 26.0374365,6.15130041 26.0374365,6.48671875 C26.0374365,8.0440182 25.8043594,9.59829954 25.338198,11.1496094 C24.8720366,12.7009192 24.1636046,14.1893158 23.2128807,15.6148437 C22.2621568,17.0403717 21.1305057,18.3011664 19.8178934,19.3972656 C18.5052811,20.4933649 16.9228096,21.3678353 15.0704315,22.0207031 C13.2180533,22.673571 11.2368972,23 9.12690355,23 C5.80243685,23 2.76016609,22.1315191 0,20.3945312 L0,20.3945312 Z" id="twitter" fill="#FFFFFF"></path>
    </g>
</svg>